<svg xmlns="http://www.w3.org/2000/svg" width="800" height="800" viewBox="0 -5.23 70 70">
  <path fill="#8f6afe" d="M33.06177 58.82889c-6.59942-3.2916-17.80605-13.7307-24.90952-23.2035l-.38611-.5149h4.90905c3.3284 0 5.08031-.051 5.44092-.1594.95525-.2862 1.50799-.9179 2.58607-2.9554 1.97619-3.735 2.24879-4.2224 2.2879-4.0904.0218.074.44604 4.3009.94276 9.3939.87326 8.9538.91529 9.2823 1.27154 9.9368.62081 1.1407 1.47439 1.6301 2.85312 1.6359 1.01617 0 1.76269-.3415 2.41627-1.1191.25355-.3016 1.82033-3.2056 3.48173-6.4532l3.02073-5.9047 10.36659-.039c10.32236-.039 10.36894-.041 10.91581-.3356 1.1802-.6369 1.77594-1.6202 1.77528-2.9304-.00069-1.3721-.67396-2.4208-1.91258-2.9791-.5125-.231-1.30161-.2501-11.80218-.2858-7.69785-.026-11.47959.01-11.97032.1108-1.27206.264-1.77303.7868-3.0106 3.1416l-1.08999 2.0739-.1043-.5158c-.0574-.2837-.47667-4.3775-.9318-9.0974s-.88563-8.7992-.95668-9.0652c-.36496-1.3662-1.62876-2.2659-3.16688-2.2544-1.04822.01-1.94772.4395-2.48617 1.1931-.17485.2447-1.92936 3.5346-3.8989 7.311l-3.581 6.866-5.76782.036-5.76783.036-.83086-1.6834c-2.06318-4.1804-2.89449-7.6097-2.738-11.2949.12425-2.9261.69392-5.0125 2.04328-7.4832 1.10812-2.029 3.06519-4.3559 4.69277-5.5795 1.78333-1.3407 4.15216-2.2461 6.64618-2.5403 2.10735-.2485 4.60651.089 7.37391.9964 1.2153.3984 4.21499 1.9073 5.62954 2.8318 2.45012 1.6012 5.68511 4.4633 7.84072 6.9369l.80955.929.94007-1.2397c1.88483-2.4857 4.78785-5.1075 7.55221-6.8208C48.7396.49419 54.60409-.56621 59.21653.87939c3.74959 1.1752 6.7744 3.9944 8.98105 8.3706 2.19828 4.3596 2.39398 9.8576.53892 15.1404-1.06649 3.0372-2.39805 5.6594-4.46756 8.7979-2.55838 3.88-4.87538 6.6471-9.08862 10.8542-5.31708 5.3093-11.00984 9.9038-16.48777 13.3068-1.60577.9976-3.84246 2.2037-4.0818 2.201-.0583 0-.75536-.325-1.54898-.7208z"/>
</svg>
